<svg width="120" height="120" viewBox="0 0 120 120" fill="none" xmlns="http://www.w3.org/2000/svg">
<g clip-path="url(#clip0_1_3)">
<line x1="97.8846" y1="70.8421" x2="68.8421" y2="37.1154" stroke="#7B7B7B" stroke-width="3" stroke-linecap="round"/>
<line x1="43.3983" y1="82.9658" x2="66.9658" y2="39.6017" stroke="#7B7B7B" stroke-width="3" stroke-linecap="round"/>
<line x1="97.8476" y1="69.781" x2="44.781" y2="81.1524" stroke="#7B7B7B" stroke-width="3" stroke-linecap="round"/>
<line x1="44.8935" y1="80.7501" x2="20.7501" y2="50.1065" stroke="#7B7B7B" stroke-width="3" stroke-linecap="round"/>
<line x1="21.0057" y1="51.1322" x2="68.1322" y2="36.9943" stroke="#7B7B7B" stroke-width="3" stroke-linecap="round"/>
<circle cx="21" cy="50" r="9" fill="#6BB25A"/>
<circle cx="68.5" cy="37.5" r="15.5" fill="#EB662D"/>
<circle cx="44.5" cy="79.5" r="12.5" fill="#4596D1"/>
<circle cx="96.5" cy="69.5" r="9.5" fill="#9D6CC3"/>
<path d="M63.856 35.176C63.9733 35.4747 63.9253 35.7413 63.712 35.976L60.944 38.712C60.848 38.8293 60.848 38.9253 60.944 39L63.68 41.752C63.9147 41.9867 63.9733 42.2533 63.856 42.552C63.8027 42.68 63.712 42.7867 63.584 42.872C63.456 42.9573 63.3173 43 63.168 43H62.56C62.3467 43 62.176 42.9253 62.048 42.776L58.848 39.592C58.7093 39.4533 58.64 39.2827 58.64 39.08V38.632C58.64 38.4507 58.7093 38.28 58.848 38.12L62.048 34.936C62.176 34.7867 62.3467 34.712 62.56 34.712H63.184C63.3333 34.712 63.4667 34.7547 63.584 34.84C63.712 34.9253 63.8027 35.0373 63.856 35.176ZM72.0509 33.24L67.0429 42.616C66.9042 42.872 66.6909 43 66.4029 43H65.9069C65.6295 43 65.4215 42.8827 65.2829 42.648C65.1549 42.4133 65.1495 42.168 65.2669 41.912L70.2749 32.568C70.4135 32.312 70.6269 32.184 70.9149 32.184H71.4109C71.6882 32.184 71.8962 32.3013 72.0349 32.536C72.1735 32.76 72.1789 32.9947 72.0509 33.24ZM78.6856 39.08C78.6856 39.2933 78.6163 39.464 78.4776 39.592L75.2936 42.776C75.123 42.9253 74.947 43 74.7656 43H74.1416C74.003 43 73.8696 42.9573 73.7416 42.872C73.6243 42.7867 73.5336 42.68 73.4696 42.552C73.3523 42.264 73.4056 41.9973 73.6296 41.752L76.3656 39C76.483 38.9253 76.483 38.8293 76.3656 38.712L73.6296 35.976C73.395 35.7627 73.3416 35.496 73.4696 35.176C73.523 35.0373 73.6136 34.9253 73.7416 34.84C73.8696 34.7547 74.003 34.712 74.1416 34.712H74.7656C74.947 34.712 75.123 34.7867 75.2936 34.936L78.4776 38.12C78.6163 38.2587 78.6856 38.4293 78.6856 38.632V39.08Z" fill="white"/>
<path d="M42.28 84.264C42.28 84.4667 42.2053 84.6427 42.056 84.792C41.9173 84.9307 41.7467 85 41.544 85H40.936C40.552 85 40.2 84.904 39.88 84.712C39.56 84.52 39.304 84.264 39.112 83.944C38.92 83.624 38.824 83.272 38.824 82.888V80.744C38.824 80.616 38.7547 80.552 38.616 80.552H38.376C38.1733 80.552 37.9973 80.4827 37.848 80.344C37.7093 80.1947 37.64 80.0187 37.64 79.816V79.368C37.64 79.1653 37.7093 78.9947 37.848 78.856C37.9973 78.7067 38.1733 78.632 38.376 78.632H38.616C38.7547 78.632 38.824 78.5627 38.824 78.424V76.296C38.824 75.912 38.92 75.56 39.112 75.24C39.304 74.92 39.56 74.664 39.88 74.472C40.2 74.28 40.552 74.184 40.936 74.184H41.544C41.7467 74.184 41.9173 74.2533 42.056 74.392C42.2053 74.5307 42.28 74.7067 42.28 74.92V75.352C42.28 75.5547 42.2053 75.7253 42.056 75.864C41.9173 76.0027 41.7467 76.072 41.544 76.072H40.936C40.8827 76.072 40.8293 76.0987 40.776 76.152C40.7333 76.1947 40.712 76.2427 40.712 76.296V78.856C40.712 78.9627 40.7013 79.064 40.68 79.16C40.6693 79.2453 40.6533 79.336 40.632 79.432C40.5787 79.528 40.5787 79.6347 40.632 79.752C40.6533 79.848 40.6693 79.944 40.68 80.04C40.7013 80.1253 40.712 80.2213 40.712 80.328V82.888C40.712 82.9413 40.7333 82.9947 40.776 83.048C40.8293 83.0907 40.8827 83.112 40.936 83.112H41.544C41.7467 83.112 41.9173 83.1813 42.056 83.32C42.2053 83.448 42.28 83.6133 42.28 83.816V84.264ZM51.8894 79.816C51.8894 80.0187 51.8147 80.1947 51.6654 80.344C51.5267 80.4827 51.356 80.552 51.1534 80.552H50.9134C50.7747 80.552 50.7054 80.616 50.7054 80.744V82.888C50.7054 83.272 50.6094 83.624 50.4174 83.944C50.2254 84.264 49.9694 84.52 49.6494 84.712C49.34 84.904 48.988 85 48.5934 85H47.9854C47.7827 85 47.6067 84.9307 47.4574 84.792C47.3187 84.6427 47.2494 84.4667 47.2494 84.264V83.816C47.2494 83.6133 47.3187 83.448 47.4574 83.32C47.6067 83.1813 47.7827 83.112 47.9854 83.112H48.5934C48.6467 83.112 48.6947 83.0907 48.7374 83.048C48.7907 82.9947 48.8174 82.9413 48.8174 82.888V80.328C48.8174 80.136 48.8494 79.944 48.9134 79.752C48.9454 79.6347 48.9454 79.528 48.9134 79.432C48.8494 79.24 48.8174 79.048 48.8174 78.856V76.296C48.8174 76.2427 48.7907 76.1947 48.7374 76.152C48.6947 76.0987 48.6467 76.072 48.5934 76.072H47.9854C47.7827 76.072 47.6067 76.0027 47.4574 75.864C47.3187 75.7253 47.2494 75.5547 47.2494 75.352V74.92C47.2494 74.7067 47.3187 74.5307 47.4574 74.392C47.6067 74.2533 47.7827 74.184 47.9854 74.184H48.5934C48.988 74.184 49.34 74.28 49.6494 74.472C49.9694 74.664 50.2254 74.92 50.4174 75.24C50.6094 75.56 50.7054 75.912 50.7054 76.296V78.424C50.7054 78.5627 50.7747 78.632 50.9134 78.632H51.1534C51.356 78.632 51.5267 78.7067 51.6654 78.856C51.8147 78.9947 51.8894 79.1653 51.8894 79.368V79.816Z" fill="white"/>
<path d="M100.336 68.408L100.24 68.856C100.219 69.0267 100.139 69.1707 100 69.288C99.8613 69.4053 99.7013 69.464 99.52 69.464H98.976C98.8373 69.464 98.7573 69.528 98.736 69.656L98.72 69.704C98.6987 69.832 98.752 69.896 98.88 69.896H99.152C99.376 69.896 99.568 69.992 99.728 70.184C99.792 70.2587 99.84 70.3493 99.872 70.456C99.904 70.5627 99.904 70.664 99.872 70.76L99.808 71.208C99.7653 71.3787 99.68 71.5227 99.552 71.64C99.424 71.7573 99.2693 71.816 99.088 71.816H98.528C98.3787 71.816 98.2933 71.8853 98.272 72.024L97.84 74.408C97.7973 74.5787 97.712 74.7227 97.584 74.84C97.456 74.9467 97.3013 75 97.12 75H96.656C96.432 75 96.2453 74.9147 96.096 74.744C95.9573 74.584 95.904 74.3813 95.936 74.136L96.336 72.024C96.3573 71.9707 96.3467 71.9227 96.304 71.88C96.272 71.8373 96.2293 71.816 96.176 71.816H96C95.8507 71.816 95.76 71.8853 95.728 72.024L95.296 74.408C95.2533 74.5787 95.168 74.7227 95.04 74.84C94.912 74.9467 94.7573 75 94.576 75H94.112C93.888 75 93.7067 74.9147 93.568 74.744C93.4187 74.5733 93.36 74.3707 93.392 74.136L93.808 72.024C93.8293 71.8853 93.7707 71.816 93.632 71.816H93.376C93.1627 71.816 92.9813 71.7253 92.832 71.544C92.6827 71.3627 92.624 71.1653 92.656 70.952L92.752 70.504C92.7947 70.3333 92.88 70.1893 93.008 70.072C93.1467 69.9547 93.3013 69.896 93.472 69.896H94C94.1493 69.896 94.2293 69.832 94.24 69.704V69.656C94.2613 69.6027 94.2507 69.56 94.208 69.528C94.176 69.4853 94.1333 69.464 94.08 69.464H93.84C93.7333 69.464 93.632 69.4373 93.536 69.384C93.44 69.3307 93.3493 69.2667 93.264 69.192C93.1253 68.9893 93.0773 68.7867 93.12 68.584L93.2 68.152C93.232 67.9707 93.3173 67.8267 93.456 67.72C93.5947 67.6027 93.7493 67.544 93.92 67.544H94.448C94.5973 67.544 94.6773 67.48 94.688 67.352L95.184 64.792C95.2053 64.6107 95.2853 64.4667 95.424 64.36C95.5733 64.2427 95.7333 64.184 95.904 64.184H96.336C96.56 64.184 96.7467 64.2747 96.896 64.456C97.056 64.6267 97.1093 64.824 97.056 65.048L96.624 67.352C96.6133 67.4053 96.624 67.4533 96.656 67.496C96.6987 67.528 96.7413 67.544 96.784 67.544H96.992C97.12 67.544 97.2 67.48 97.232 67.352L97.728 64.792C97.7493 64.6107 97.8293 64.4667 97.968 64.36C98.1067 64.2427 98.2613 64.184 98.432 64.184H98.88C99.104 64.184 99.2907 64.2747 99.44 64.456C99.5787 64.616 99.632 64.8133 99.6 65.048L99.152 67.352C99.1413 67.4053 99.1573 67.4533 99.2 67.496C99.2427 67.528 99.2853 67.544 99.328 67.544H99.616C99.84 67.544 100.027 67.6347 100.176 67.816C100.315 67.9867 100.368 68.184 100.336 68.408ZM96.784 69.656C96.8053 69.528 96.752 69.464 96.624 69.464H96.432C96.2933 69.464 96.2133 69.528 96.192 69.656L96.176 69.704C96.1547 69.832 96.208 69.896 96.336 69.896H96.544C96.6933 69.896 96.7733 69.832 96.784 69.704V69.656Z" fill="white"/>
<path d="M23.896 50.432C23.896 50.6347 23.8267 50.8107 23.688 50.96C23.56 51.0987 23.3893 51.168 23.176 51.168H22.632C22.5893 51.168 22.5573 51.1893 22.536 51.232C22.5147 51.264 22.5093 51.3067 22.52 51.36L23 52.144C23.1387 52.4 23.1387 52.6453 23 52.88C22.8613 53.1253 22.648 53.248 22.36 53.248H21.864C21.576 53.248 21.368 53.1253 21.24 52.88L20.888 52.288C20.856 52.2453 20.8133 52.224 20.76 52.224C20.7173 52.224 20.6853 52.2453 20.664 52.288L20.328 52.864C20.1893 53.0987 19.9813 53.216 19.704 53.216H19.192C18.9147 53.216 18.7067 53.0987 18.568 52.864C18.4293 52.608 18.4293 52.3627 18.568 52.128L19.032 51.36C19.0533 51.3067 19.048 51.264 19.016 51.232C18.9947 51.1893 18.9627 51.168 18.92 51.168H18.36C18.1573 51.168 17.9867 51.0987 17.848 50.96C17.7093 50.8107 17.64 50.6347 17.64 50.432V50C17.64 49.7867 17.7093 49.616 17.848 49.488C17.9867 49.3493 18.1573 49.28 18.36 49.28H18.92C18.9627 49.28 18.9947 49.2587 19.016 49.216C19.048 49.1733 19.0533 49.1307 19.032 49.088L18.568 48.32C18.4293 48.064 18.4293 47.8187 18.568 47.584C18.7067 47.3387 18.9147 47.216 19.192 47.216H19.704C19.9813 47.216 20.1893 47.3387 20.328 47.584L20.664 48.16C20.6853 48.192 20.7173 48.208 20.76 48.208C20.8133 48.208 20.856 48.192 20.888 48.16L21.24 47.552C21.3787 47.3067 21.5867 47.184 21.864 47.184H22.36C22.648 47.184 22.8613 47.3067 23 47.552C23.1387 47.808 23.1387 48.0533 23 48.288L22.52 49.088C22.5093 49.1307 22.5147 49.1733 22.536 49.216C22.5573 49.2587 22.5893 49.28 22.632 49.28H23.176C23.3893 49.28 23.56 49.3493 23.688 49.488C23.8267 49.616 23.896 49.7867 23.896 50V50.432Z" fill="white"/>
</g>
<defs>
<clipPath id="clip0_1_3">
<rect width="120" height="120" fill="white"/>
</clipPath>
</defs>
</svg>
